<svg width="36" height="35" viewBox="0 0 36 35" fill="none" xmlns="http://www.w3.org/2000/svg">
<path fill-rule="evenodd" clip-rule="evenodd" d="M2.78911 23.1085C-1.70662 12.0735 6.41159 0 18.3272 0H18.9701C27.8813 0 35.1053 7.22402 35.1053 16.1353C35.1053 26.0569 27.0623 34.1 17.1406 34.1H1.50008C0.863569 34.1 0.296364 33.6983 0.0851088 33.0978C-0.126146 32.4974 0.0645542 31.829 0.56084 31.4305L4.50382 28.2639C4.67623 28.1254 4.73722 27.8902 4.65379 27.6854L2.78911 23.1085ZM18.3272 3C8.54215 3 1.87551 12.9147 5.56739 21.9766L7.43206 26.5535C8.01606 27.987 7.58915 29.6338 6.38231 30.603L5.76342 31.1H17.1406C25.4054 31.1 32.1053 24.4001 32.1053 16.1353C32.1053 8.88087 26.2245 3 18.9701 3H18.3272Z" fill="#3D3D3D"/>
</svg>
