<svg width="220" height="70" viewBox="0 0 220 70" fill="none" xmlns="http://www.w3.org/2000/svg">
<path d="M8.12866 46.1013H2.42217V26.3037H7.4718V28.6134C8.10129 27.871 8.96342 27.2112 10.0582 26.6338C11.153 26.0288 12.3846 25.7263 13.753 25.7263C16.4626 25.7263 18.4743 26.7024 19.7879 28.6548C21.786 26.7024 23.9755 25.7263 26.3565 25.7263C28.8746 25.7263 30.7219 26.5238 31.8988 28.1186C33.1031 29.6859 33.7052 31.5007 33.7052 33.5628V46.1013H28.0398V33.9341C28.0398 32.9167 27.7525 32.1194 27.1777 31.5419C26.6303 30.9645 25.8913 30.6758 24.9607 30.6758C23.5102 30.6758 22.2102 31.3356 21.0606 32.6555C21.0881 32.8479 21.1017 33.1504 21.1017 33.5628V46.1013H15.4363V33.9341C15.4363 32.9167 15.1489 32.1194 14.5741 31.5419C14.0267 30.9645 13.2877 30.6758 12.3572 30.6758C10.7424 30.6758 9.3329 31.4731 8.12866 33.068V46.1013Z" fill="#B3B3B3"/>
<path d="M47.1061 39.6671L51.9916 26.3037H57.9033L49.1589 48.4936C47.2156 53.3054 44.3829 55.7114 40.6606 55.7114C39.8669 55.7114 38.8406 55.5602 37.5816 55.2577V50.5146C38.4848 50.7071 39.2648 50.8033 39.9217 50.8033C42.0017 50.8033 43.5619 49.3597 44.6018 46.4726L44.6429 46.3901L35.3237 26.3037H41.3585L47.1061 39.6671Z" fill="#B3B3B3"/>
<mask id="mask0_17_106" style="mask-type:luminance" maskUnits="userSpaceOnUse" x="60" y="0" width="68" height="69">
<path d="M127.979 0.858185H60.9525V68.1968H127.979V0.858185Z" fill="white"/>
</mask>
<g mask="url(#mask0_17_106)">
<path d="M93.8871 21.6428L69.8069 10.3433C69.3105 10.1108 68.757 10.0293 68.2151 10.1091C66.5104 10.3491 64.9484 12.0476 64.9451 14.1094L64.8512 64.7559C64.8512 66.8445 66.4274 68.0728 68.1154 67.8344C68.7593 67.7437 69.4195 67.4395 70.0143 66.8902L90.3425 48.1047L81.5361 43.9721C79.4881 43.0134 78.5299 41.0308 78.4353 39.1671C78.3411 37.3092 79.0631 35.3412 80.5951 33.9258L93.8871 21.6428Z" fill="url(#paint0_radial_17_106)"/>
<path d="M120.577 1.22091C122.267 0.982559 123.845 2.21099 123.841 4.29949L123.748 54.946C123.744 57.0061 122.182 58.7046 120.478 58.9463C119.936 59.0262 119.382 58.9447 118.886 58.7121L82.5977 41.6832C80.5238 40.7124 80.3663 37.5679 82.2966 35.7844L118.678 2.16515C119.273 1.61595 119.933 1.31175 120.577 1.22091Z" fill="url(#paint1_radial_17_106)"/>
</g>
<path d="M138.662 46.1013H132.956V26.3037H138.662V46.1013ZM139.155 19.7458C139.155 20.8181 138.84 21.6293 138.21 22.1792C137.581 22.7293 136.774 23.0042 135.789 23.0042C134.831 23.0042 134.037 22.7293 133.407 22.1792C132.778 21.6293 132.463 20.8181 132.463 19.7458C132.463 18.7009 132.778 17.9036 133.407 17.3537C134.037 16.8036 134.831 16.5287 135.789 16.5287C136.746 16.5287 137.54 16.8036 138.169 17.3537C138.827 17.9036 139.155 18.7009 139.155 19.7458Z" fill="#B3B3B3"/>
<path d="M145.057 20.5295L150.723 19.1684V26.3037H156.963V31.1294H150.723V38.8835C150.723 40.8632 151.776 41.8531 153.883 41.8531C155.142 41.8531 156.334 41.6332 157.455 41.1933V45.8126C155.813 46.3901 154.048 46.6788 152.159 46.6788C150.08 46.6788 148.369 46.1427 147.028 45.0702C145.714 43.9978 145.057 42.3068 145.057 39.9971V31.1294H141.732V26.3037H145.057V20.5295Z" fill="#B3B3B3"/>
<path d="M166.445 46.1013H160.738V26.3037H165.789V28.6134C166.418 27.871 167.28 27.2112 168.374 26.6338C169.469 26.0288 170.701 25.7263 172.069 25.7263C174.779 25.7263 176.791 26.7024 178.105 28.6548C180.102 26.7024 182.291 25.7263 184.673 25.7263C187.191 25.7263 189.038 26.5238 190.215 28.1186C191.42 29.6859 192.022 31.5007 192.022 33.5628V46.1013H186.356V33.9341C186.356 32.9167 186.068 32.1194 185.494 31.5419C184.947 30.9645 184.208 30.6758 183.277 30.6758C181.826 30.6758 180.526 31.3356 179.377 32.6555C179.405 32.848 179.418 33.1504 179.418 33.5628V46.1013H173.752V33.9341C173.752 32.9167 173.465 32.1194 172.891 31.5419C172.343 30.9645 171.604 30.6758 170.674 30.6758C169.058 30.6758 167.649 31.4731 166.445 33.068V46.1013Z" fill="#B3B3B3"/>
<path d="M198.713 43.9153C196.606 42.0731 195.552 39.5022 195.552 36.2025C195.552 32.903 196.606 30.3321 198.713 28.4897C200.82 26.6475 203.394 25.7263 206.432 25.7263C209.497 25.7263 212.069 26.6475 214.15 28.4897C216.257 30.3321 217.311 32.903 217.311 36.2025C217.311 39.5022 216.257 42.0731 214.15 43.9153C212.069 45.7577 209.497 46.6788 206.432 46.6788C203.394 46.6788 200.82 45.7577 198.713 43.9153ZM210.168 40.0796C211.07 39.0622 211.522 37.7698 211.522 36.2025C211.522 34.6352 211.07 33.3566 210.168 32.3668C209.264 31.3494 208.019 30.8407 206.432 30.8407C204.844 30.8407 203.598 31.3494 202.696 32.3668C201.82 33.3566 201.382 34.6352 201.382 36.2025C201.382 37.7698 201.82 39.0622 202.696 40.0796C203.598 41.0694 204.844 41.5644 206.432 41.5644C208.019 41.5644 209.264 41.0694 210.168 40.0796Z" fill="#B3B3B3"/>
<defs>
<radialGradient id="paint0_radial_17_106" cx="0" cy="0" r="1" gradientTransform="matrix(-86.8096 10.8047 -4.06083 -33.6612 151.825 23.6942)" gradientUnits="userSpaceOnUse">
<stop stop-color="#E02E2E"/>
<stop offset="1" stop-color="#EE215B"/>
</radialGradient>
<radialGradient id="paint1_radial_17_106" cx="0" cy="0" r="1" gradientTransform="matrix(59.043 -10.4404 5.82259 33.9725 64.728 44.9964)" gradientUnits="userSpaceOnUse">
<stop stop-color="#0091FF"/>
<stop offset="1" stop-color="#1846C7"/>
</radialGradient>
</defs>
</svg>
