<svg width="31" height="39" viewBox="0 0 31 39" fill="none" xmlns="http://www.w3.org/2000/svg">
<path d="M23 21.5C23 20.6716 22.3284 20 21.5 20H9.5C8.67157 20 8 20.6716 8 21.5C8 22.3284 8.67157 23 9.5 23H21.5C22.3284 23 23 22.3284 23 21.5Z" fill="#3D3D3D"/>
<path d="M23 29.5C23 28.6716 22.3284 28 21.5 28H9.5C8.67157 28 8 28.6716 8 29.5C8 30.3284 8.67157 31 9.5 31H21.5C22.3284 31 23 30.3284 23 29.5Z" fill="#3D3D3D"/>
<path fill-rule="evenodd" clip-rule="evenodd" d="M5.5 0C2.46243 0 0 2.46243 0 5.5V33.5C0 36.5376 2.46243 39 5.5 39H25.5C28.5376 39 31 36.5376 31 33.5V11.4353C31 10.6738 30.7516 9.93301 30.2925 9.3254L24.297 1.39008C23.6355 0.514596 22.6017 0 21.5044 0H5.5ZM3 5.5C3 4.11929 4.11929 3 5.5 3H20V11.7941C20 12.6225 20.6716 13.2941 21.5 13.2941H28V33.5C28 34.8807 26.8807 36 25.5 36H5.5C4.11929 36 3 34.8807 3 33.5V5.5Z" fill="#3D3D3D"/>
</svg>
