<svg width="36" height="35" viewBox="0 0 36 35" fill="none" xmlns="http://www.w3.org/2000/svg">
<path fill-rule="evenodd" clip-rule="evenodd" d="M7.92053 0C8.74896 0 9.42053 0.671573 9.42053 1.5V4.83526C15.076 4.3316 20.7651 4.33161 26.4205 4.83527V1.5C26.4205 0.671573 27.0921 0 27.9205 0C28.749 0 29.4205 0.671573 29.4205 1.5V5.13287C32.4066 5.55509 34.7657 7.91694 35.165 10.9297L35.3381 12.2356C36.0662 17.7282 36.0033 23.2969 35.1514 28.7717C34.7294 31.4838 32.5261 33.5669 29.7946 33.8363L27.4086 34.0716C21.0985 34.6939 14.7425 34.6939 8.43238 34.0716L6.04638 33.8363C3.31489 33.5669 1.11157 31.4838 0.689555 28.7717C-0.162361 23.2969 -0.225242 17.7282 0.502829 12.2356L0.675931 10.9297C1.07529 7.9169 3.43439 5.55502 6.42053 5.13285V1.5C6.42053 0.671573 7.0921 0 7.92053 0ZM8.81086 7.90561C14.8692 7.30816 20.9717 7.30816 27.0301 7.90561L28.841 8.08419C30.5745 8.25514 31.9621 9.59708 32.191 11.3239L32.3641 12.6298C32.4246 13.086 32.4793 13.5428 32.5283 14H3.31266C3.36162 13.5428 3.41634 13.086 3.47682 12.6298L3.64992 11.3239C3.87881 9.59708 5.26646 8.25514 6.99996 8.08419L8.81086 7.90561ZM3.07419 17C2.87783 20.7762 3.07129 24.5664 3.65388 28.3104C3.86556 29.6708 4.97072 30.7156 6.3408 30.8508L8.7268 31.0861C14.8411 31.689 20.9999 31.689 27.1141 31.0861L29.5002 30.8508C30.8702 30.7156 31.9754 29.6708 32.1871 28.3104C32.7697 24.5664 32.9631 20.7762 32.7668 17H3.07419Z" fill="#0033A0"/>
</svg>
