<svg width="68" height="68" viewBox="0 0 68 68" fill="none" xmlns="http://www.w3.org/2000/svg">
<mask id="mask0_102_1746" style="mask-type:luminance" maskUnits="userSpaceOnUse" x="0" y="0" width="68" height="68">
<path d="M67.0267 0H0V67.3387H67.0267V0Z" fill="white"/>
</mask>
<g mask="url(#mask0_102_1746)">
<path d="M32.9347 20.7846L8.85447 9.4851C8.35801 9.25258 7.80457 9.17116 7.26265 9.25091C5.55792 9.49093 3.99592 11.1894 3.99261 13.2512L3.89877 63.8977C3.89877 65.9863 5.47495 67.2146 7.16299 66.9762C7.80682 66.8855 8.46708 66.5813 9.06188 66.0321L29.39 47.2465L20.5837 43.1139C18.5357 42.1552 17.5775 40.1726 17.4828 38.309C17.3886 36.451 18.1106 34.4831 19.6427 33.0676L32.9347 20.7846Z" fill="url(#paint0_radial_102_1746)"/>
<path d="M59.6241 0.362727C61.3147 0.124374 62.8924 1.3528 62.8883 3.44131L62.7954 54.0878C62.7912 56.1479 61.2292 57.8464 59.5254 58.0881C58.9833 58.168 58.4299 58.0865 57.9334 57.8539L21.6452 40.8251C19.5714 39.8542 19.4138 36.7097 21.3441 34.9262L57.7252 1.30697C58.3208 0.757762 58.9803 0.453567 59.6241 0.362727Z" fill="url(#paint1_radial_102_1746)"/>
</g>
<defs>
<radialGradient id="paint0_radial_102_1746" cx="0" cy="0" r="1" gradientTransform="matrix(-86.8096 10.8047 -4.06083 -33.6612 90.8727 22.836)" gradientUnits="userSpaceOnUse">
<stop stop-color="#E02E2E"/>
<stop offset="1" stop-color="#EE215B"/>
</radialGradient>
<radialGradient id="paint1_radial_102_1746" cx="0" cy="0" r="1" gradientTransform="matrix(59.043 -10.4404 5.82259 33.9725 3.77552 44.1382)" gradientUnits="userSpaceOnUse">
<stop stop-color="#0091FF"/>
<stop offset="1" stop-color="#1846C7"/>
</radialGradient>
</defs>
</svg>
